<svg width="81" height="81" fill="none" xmlns="http://www.w3.org/2000/svg"><g filter="url(#filter0_i)" fill-rule="evenodd" clip-rule="evenodd"><path d="M40.66 1.21a39.12 39.12 0 110 78.25 39.12 39.12 0 010-78.25z" fill="#fff"/><path d="M40.66 1.21a39.12 39.12 0 110 78.25 39.12 39.12 0 010-78.25z" fill="#D7373B"/></g><path fill-rule="evenodd" clip-rule="evenodd" d="M33 30h15a3 3 0 013 3v15a3 3 0 01-3 3H33a3 3 0 01-3-3V33a3 3 0 013-3zm11 10.5a3.5 3.5 0 10-7 0 3.5 3.5 0 007 0zM33 48v-9h1.18a6.5 6.5 0 1012.64 0H48v9H33zm11-11h4v-4h-4v4z" fill="#fff" opacity=".3"/><defs><filter id="filter0_i" x="1.54" y="1.21" width="78.25" height="78.25" filterUnits="userSpaceOnUse" color-interpolation-filters="sRGB"><feFlood flood-opacity="0" result="BackgroundImageFix"/><feBlend in="SourceGraphic" in2="BackgroundImageFix" result="shape"/><feColorMatrix in="SourceAlpha" values="0 0 0 0 0 0 0 0 0 0 0 0 0 0 0 0 0 0 127 0" result="hardAlpha"/><feOffset dy="3"/><feComposite in2="hardAlpha" operator="arithmetic" k2="-1" k3="1"/><feColorMatrix values="0 0 0 0 0 0 0 0 0 0.00392157 0 0 0 0 0.00392157 0 0 0 0.1 0"/><feBlend in2="shape" result="effect1_innerShadow"/></filter></defs></svg>