<svg width="81" height="81" fill="none" xmlns="http://www.w3.org/2000/svg"><g filter="url(#filter0_i)" fill-rule="evenodd" clip-rule="evenodd"><path d="M40.66 1.21a39.12 39.12 0 110 78.25 39.12 39.12 0 010-78.25z" fill="#fff"/><path d="M40.66 1.21a39.12 39.12 0 110 78.25 39.12 39.12 0 010-78.25z" fill="#D7373B"/></g><path d="M43.14 44.51c.95-.3 2.18 2.04 3.48 2.94.98.68 1.73.53 1.73.53l3.47-.05s1.82-.1.96-1.55c-.07-.12-.5-1.07-2.59-3.02-2.17-2.05-1.88-1.71.74-5.25 1.6-2.15 2.24-3.46 2.04-4.02-.2-.54-1.37-.4-1.37-.4l-3.91.02c-.38 0-.7.12-.85.52 0 0-.62 1.66-1.45 3.08-1.74 2.99-2.43 3.14-2.72 2.96-.66-.44-.5-1.74-.5-2.67 0-2.9.44-4.1-.84-4.41A6.6 6.6 0 0039.5 33c-1.39-.03-2.57 0-3.24.32-.45.23-.79.72-.58.74.26.04.84.16 1.15.59.4.55.4 1.79.4 1.79s.22 3.41-.55 3.83c-.52.3-1.25-.3-2.8-3.01-.8-1.4-1.4-2.93-1.4-2.93s-.1-.28-.32-.44c-.25-.18-.6-.24-.6-.24l-3.71.02s-.56.02-.77.27c-.18.21-.01.66-.01.66s2.9 6.88 6.2 10.35c3.02 3.18 6.45 2.97 6.45 2.97h1.56s.47-.05.7-.31c.23-.24.22-.7.22-.7s-.03-2.1.94-2.41z" fill="#fff" opacity=".3"/><defs><filter id="filter0_i" x="1.54" y="1.21" width="78.25" height="78.25" filterUnits="userSpaceOnUse" color-interpolation-filters="sRGB"><feFlood flood-opacity="0" result="BackgroundImageFix"/><feBlend in="SourceGraphic" in2="BackgroundImageFix" result="shape"/><feColorMatrix in="SourceAlpha" values="0 0 0 0 0 0 0 0 0 0 0 0 0 0 0 0 0 0 127 0" result="hardAlpha"/><feOffset dy="3"/><feComposite in2="hardAlpha" operator="arithmetic" k2="-1" k3="1"/><feColorMatrix values="0 0 0 0 0 0 0 0 0 0.00392157 0 0 0 0 0.00392157 0 0 0 0.1 0"/><feBlend in2="shape" result="effect1_innerShadow"/></filter></defs></svg>